# Blender v2.72 (sub 0) OBJ File: 'RG.blend'
# www.blender.org
mtllib longtriangleblock.mtl
o longtriangleblock_Cube.077
v 1.000000 1.000000 2.000000
v -1.000000 -1.000000 -2.000000
v 1.000000 1.000000 -2.000000
v -1.000000 -1.000000 1.764791
v -1.000000 -1.000000 2.000000
v -1.000000 -1.000000 1.798392
v -1.000000 -1.000000 1.831993
v -1.000000 -1.000000 1.865595
v -1.000000 -1.000000 1.899196
v -1.000000 -1.000000 1.932797
v -1.000000 -1.000000 1.966399
v -1.000000 -1.000000 -2.000000
v -1.000000 -1.000000 -1.779415
v -1.000000 -1.000000 -1.968488
v -1.000000 -1.000000 -1.936976
v -1.000000 -1.000000 -1.905464
v -1.000000 -1.000000 -1.873952
v -1.000000 -1.000000 -1.842440
v -1.000000 -1.000000 -1.810928
v 0.889708 -1.000000 -2.000000
v 1.000000 -0.889708 -1.779415
v 0.889708 -1.000000 -1.779415
v 0.914238 -0.986353 -1.994475
v 0.937551 -0.970620 -1.978166
v 0.958470 -0.953589 -1.951881
v 0.889708 -1.010884 -1.994475
v 0.915290 -0.996849 -1.987924
v 0.938385 -0.980973 -1.970823
v 0.957512 -0.965074 -1.946116
v 0.889708 -1.018463 -1.978166
v 0.915137 -1.004297 -1.970722
v 0.937058 -0.988657 -1.954759
v 0.953942 -0.974121 -1.933882
v 0.889708 -1.022352 -1.951882
v 0.914678 -1.007944 -1.945894
v 0.935268 -0.992801 -1.933825
v 0.949999 -0.979833 -1.919334
v 0.997237 -0.903354 -1.779415
v 0.989083 -0.919088 -1.779415
v 0.975941 -0.936118 -1.779415
v 0.997237 -0.903354 -1.828476
v 0.993962 -0.918176 -1.830049
v 0.985411 -0.933947 -1.829840
v 0.973058 -0.949527 -1.829203
v 0.989083 -0.919088 -1.875101
v 0.985361 -0.934074 -1.876742
v 0.977380 -0.948336 -1.873987
v 0.966941 -0.961121 -1.870484
v 0.975941 -0.936118 -1.916940
v 0.972947 -0.949675 -1.915240
v 0.966913 -0.961156 -1.907916
v 0.959667 -0.970165 -1.899998
v 0.889708 -1.010884 -1.828476
v 0.889708 -1.018463 -1.875101
v 0.889708 -1.022352 -1.916940
v 0.914238 -0.986353 -1.779415
v 0.915025 -0.997114 -1.830579
v 0.914920 -1.004438 -1.876771
v 0.914601 -1.007984 -1.915024
v 0.937551 -0.970620 -1.779415
v 0.938371 -0.981064 -1.830275
v 0.936993 -0.988722 -1.874117
v 0.935242 -0.992820 -1.907883
v 0.958470 -0.953589 -1.779415
v 0.957620 -0.965003 -1.829356
v 0.953958 -0.974111 -1.870535
v 0.949999 -0.979833 -1.899998
v 1.000000 -0.889708 1.779415
v 0.889708 -0.889708 2.000000
v 0.889708 -1.000000 1.764791
v 0.997237 -0.889708 1.829919
v 0.989083 -0.889708 1.877550
v 0.975941 -0.889708 1.919904
v 0.997237 -0.914238 1.777606
v 0.993962 -0.915025 1.830196
v 0.985411 -0.914920 1.877359
v 0.973058 -0.914601 1.916082
v 0.989083 -0.937551 1.775519
v 0.985361 -0.938371 1.827764
v 0.977380 -0.936993 1.872621
v 0.966941 -0.935242 1.906931
v 0.975941 -0.958470 1.773261
v 0.972947 -0.957620 1.824715
v 0.966913 -0.953958 1.867102
v 0.959667 -0.949999 1.897324
v 0.889708 -0.914238 1.992665
v 0.889708 -0.937551 1.974270
v 0.889708 -0.958470 1.945727
v 0.914238 -0.889708 1.995918
v 0.915025 -0.915290 1.987507
v 0.914920 -0.938385 1.968300
v 0.914601 -0.957512 1.941485
v 0.937551 -0.889708 1.980614
v 0.938371 -0.915137 1.971292
v 0.936993 -0.937058 1.953255
v 0.935242 -0.953942 1.930450
v 0.958470 -0.889708 1.954845
v 0.957620 -0.914678 1.946948
v 0.953958 -0.935268 1.932871
v 0.949999 -0.949999 1.916660
v 0.914238 -0.997237 1.766600
v 0.937551 -0.989083 1.768686
v 0.958470 -0.975941 1.770944
v 0.889708 -0.997237 1.815661
v 0.915290 -0.993962 1.819199
v 0.938385 -0.985411 1.821081
v 0.957512 -0.973058 1.822510
v 0.889708 -0.989083 1.864372
v 0.915137 -0.985361 1.868000
v 0.937058 -0.977380 1.867136
v 0.953942 -0.966941 1.865329
v 0.889708 -0.975941 1.908469
v 0.914678 -0.972947 1.908567
v 0.935268 -0.966913 1.902765
v 0.949999 -0.959667 1.896042
v 1.000000 1.000000 -1.779415
v 1.000000 1.000000 -2.000000
v 1.000000 1.000000 -1.810928
v 1.000000 1.000000 -1.842440
v 1.000000 1.000000 -1.873952
v 1.000000 1.000000 -1.905464
v 1.000000 1.000000 -1.936976
v 1.000000 1.000000 -1.968488
v 1.000000 1.000000 2.000000
v 1.000000 1.000000 1.779415
v 1.000000 1.000000 1.968488
v 1.000000 1.000000 1.936976
v 1.000000 1.000000 1.905464
v 1.000000 1.000000 1.873952
v 1.000000 1.000000 1.842440
v 1.000000 1.000000 1.810928
v -1.000000 -1.000000 2.000000
v -1.000000 -1.000000 2.000000
v -1.000000 -1.000000 2.000000
v -1.000000 -1.000000 2.000000
v -1.000000 -1.000000 2.000000
v -1.000000 -1.000000 2.000000
v -1.000000 -1.000000 2.000000
v -1.000000 -1.000000 2.000000
vn 0.000000 0.000000 1.000000
vn 0.000000 1.000000 0.000000
vn 1.000000 0.000000 0.000000
vn 0.442500 -0.442500 -0.780000
vn 0.703900 -0.372300 -0.604900
vn 0.838100 -0.299000 -0.456400
vn 0.910700 -0.243000 -0.334100
vn 0.517700 -0.786800 -0.336100
vn 0.673900 -0.686600 -0.272800
vn 0.773500 -0.596200 -0.215100
vn 0.832500 -0.533300 -0.150200
vn 0.509000 -0.852900 -0.115900
vn 0.625000 -0.774200 -0.099800
vn 0.707600 -0.701600 -0.083700
vn 0.755600 -0.653000 -0.051500
vn 0.980100 -0.198400 -0.005300
vn 0.885600 -0.459000 0.070800
vn 0.786200 -0.606700 0.117900
vn 0.699300 -0.699300 0.147900
vn 0.972900 -0.203300 -0.110000
vn 0.879100 -0.476700 -0.004600
vn 0.783400 -0.618800 0.057700
vn 0.704400 -0.703700 0.093000
vn 0.951900 -0.212200 -0.221000
vn 0.863500 -0.498300 -0.078100
vn 0.775000 -0.632000 0.002700
vn 0.706600 -0.706400 0.042200
vn 0.481300 -0.856300 0.187500
vn 0.488500 -0.862000 0.135600
vn 0.494000 -0.866100 0.076200
vn 0.499700 -0.866200 0.000100
vn 0.556100 -0.812300 0.175800
vn 0.565500 -0.815300 0.124700
vn 0.575000 -0.815200 0.069100
vn 0.592500 -0.805600 -0.000000
vn 0.627500 -0.761300 0.163300
vn 0.634700 -0.764500 0.112700
vn 0.640300 -0.765600 0.062700
vn 0.660700 -0.750600 0.000000
vn 0.707100 -0.707100 0.000000
vn 0.990000 -0.127400 0.059800
vn 0.975500 -0.143300 0.167000
vn 0.940800 -0.155200 0.301400
vn 0.881600 -0.169400 0.440500
vn 0.934500 -0.350600 0.061100
vn 0.912900 -0.369500 0.173800
vn 0.876600 -0.386800 0.286400
vn 0.811100 -0.421500 0.405600
vn 0.834800 -0.547500 0.057600
vn 0.814800 -0.556100 0.164000
vn 0.787100 -0.558500 0.261900
vn 0.721600 -0.590900 0.360800
vn 0.180300 -0.281800 0.942400
vn 0.163200 -0.611200 0.774500
vn 0.130700 -0.799700 0.586100
vn 0.106300 -0.900300 0.422100
vn 0.554200 -0.244600 0.795700
vn 0.489800 -0.558800 0.669300
vn 0.410200 -0.744800 0.526400
vn 0.359400 -0.844600 0.396900
vn 0.770800 -0.197200 0.605800
vn 0.693300 -0.483400 0.534500
vn 0.596300 -0.666400 0.447600
vn 0.538500 -0.762800 0.357900
vn 0.107400 -0.992400 0.059600
vn 0.324700 -0.943900 0.061000
vn 0.526700 -0.848100 0.057200
vn 0.702600 -0.709600 0.052600
vn 0.101500 -0.979700 0.173000
vn 0.329700 -0.928400 0.171400
vn 0.526700 -0.834300 0.163100
vn 0.686700 -0.709300 0.159000
vn 0.097500 -0.951400 0.292200
vn 0.341900 -0.896800 0.280700
vn 0.519000 -0.814400 0.259500
vn 0.667200 -0.701000 0.251800
vn 0.647200 -0.690200 0.323600
vn 0.998400 0.000000 -0.056200
vn 0.985000 0.000200 -0.172300
vn 0.954100 -0.000300 -0.299600
vn 0.894700 -0.001200 -0.446700
vn 0.783000 -0.001900 -0.622000
vn 0.573700 -0.001100 -0.819100
vn 0.218000 0.003400 -0.976000
vn -0.005800 -1.000000 0.000000
vn -0.009800 -1.000000 0.000000
vn -0.011800 -0.999900 0.000000
vn 0.000000 -1.000000 0.000000
vn 0.164100 0.006900 0.986400
vn 0.548800 0.001200 0.836000
vn 0.776400 -0.000600 0.630300
vn 0.894400 -0.000500 0.447200
vn 0.955100 -0.000000 0.296400
vn 0.985700 0.000300 0.168700
vn 0.998500 0.000000 0.054600
vn 0.486100 -0.873900 -0.002700
vn 0.559400 -0.828900 -0.004300
vn 0.631300 -0.775500 -0.004900
vn 0.707100 -0.707100 -0.004400
vn 0.791700 -0.610900 -0.003200
vn 0.887800 -0.460200 -0.001400
vn 0.980100 -0.198400 0.000000
vn 0.000000 -0.998500 0.054200
vn -0.000100 -0.986300 0.165100
vn 0.000600 -0.958300 0.285600
vn 0.001900 -0.905400 0.424600
vn 0.003200 -0.806600 0.591100
vn 0.003200 -0.619400 0.785000
vn -0.000300 -0.286500 0.958100
vn -0.707100 0.707100 0.000000
vn 0.000000 0.000000 -1.000000
vn 0.412400 -0.412400 -0.812300
vn 0.681700 -0.337000 -0.649400
vn 0.831200 -0.275500 -0.483000
vn 0.910700 -0.243500 -0.333600
vn 0.532100 -0.767800 -0.356800
vn 0.685300 -0.670400 -0.284300
vn 0.777500 -0.589900 -0.218000
vn 0.833100 -0.532200 -0.150400
vn 0.518200 -0.846100 -0.125200
vn 0.627400 -0.772000 -0.101800
vn 0.701900 -0.707800 -0.080100
vn 0.755800 -0.652800 -0.051500
vn 0.976300 -0.216300 0.005200
vn 0.876600 -0.474200 0.082100
vn 0.780000 -0.613400 0.124000
vn 0.699400 -0.699200 0.147800
vn 0.968700 -0.230600 -0.091600
vn 0.873100 -0.487600 0.005200
vn 0.781200 -0.621300 0.060400
vn 0.704000 -0.704000 0.093400
vn 0.950500 -0.235300 -0.202800
vn 0.862200 -0.501000 -0.075000
vn 0.778100 -0.628200 -0.002700
vn 0.706500 -0.706500 0.042400
vn 0.477300 -0.857900 0.190300
vn 0.482100 -0.864800 0.140600
vn 0.488600 -0.868800 0.080700
vn 0.499900 -0.866100 0.000000
vn 0.550300 -0.815400 0.179900
vn 0.560700 -0.818000 0.128400
vn 0.572900 -0.816600 0.070900
vn 0.592000 -0.806000 0.000400
vn 0.622500 -0.764600 0.167100
vn 0.633300 -0.765500 0.113800
vn 0.644300 -0.762500 0.059100
vn 0.660600 -0.750700 0.000100
vn 0.991800 -0.115700 0.054300
vn 0.976300 -0.124400 0.177300
vn 0.945700 -0.139900 0.293400
vn 0.881500 -0.169700 0.440700
vn 0.941100 -0.334000 0.053600
vn 0.919300 -0.356100 0.167500
vn 0.879900 -0.381100 0.283800
vn 0.812000 -0.420200 0.405100
vn 0.843100 -0.535200 0.051700
vn 0.817300 -0.552800 0.162400
vn 0.779300 -0.567400 0.266100
vn 0.721800 -0.590600 0.360700
vn 0.156400 -0.304200 0.939700
vn 0.128900 -0.634400 0.762200
vn 0.109700 -0.809800 0.576300
vn 0.106600 -0.900100 0.422300
vn 0.527300 -0.277400 0.803200
vn 0.467600 -0.579000 0.667900
vn 0.402600 -0.750200 0.524500
vn 0.358100 -0.845400 0.396400
vn 0.757300 -0.220200 0.614800
vn 0.688900 -0.488600 0.535500
vn 0.607400 -0.656100 0.447900
vn 0.538300 -0.763100 0.357800
vn 0.119500 -0.991400 0.053800
vn 0.343000 -0.937900 0.051500
vn 0.539200 -0.840700 0.050300
vn 0.702400 -0.709800 0.052700
vn 0.119900 -0.979200 0.163900
vn 0.343200 -0.924800 0.164100
vn 0.531400 -0.831800 0.160400
vn 0.687600 -0.708600 0.158600
vn 0.113100 -0.952200 0.283800
vn 0.338200 -0.898800 0.278900
vn 0.527500 -0.807600 0.263800
vn 0.667500 -0.700800 0.251700
vn 1.000000 -0.001500 0.000000
vn 1.000000 -0.005700 0.000000
vn 0.999900 -0.012400 0.000000
vn 0.999800 -0.021300 0.000000
vn 0.999500 -0.031700 0.000000
vn 0.999100 -0.043100 0.000000
vn 0.998500 -0.055100 0.000000
vn 0.000000 -0.976300 0.216600
vn -0.004200 -0.987000 0.160400
vn -0.008100 -0.995700 0.092500
vn -0.015300 -0.989100 -0.146300
vn -0.018000 -0.906700 -0.421400
vn -0.014900 -0.452600 -0.891600
vn 0.998300 -0.058300 0.000000
vn 0.999000 -0.045300 0.000000
vn 0.999500 -0.033000 0.000000
vn 0.999800 -0.022000 0.000000
vn 0.999900 -0.012700 0.000000
vn 1.000000 -0.005800 0.000000
vn 0.111900 -0.993700 0.000000
vn 0.330400 -0.943800 -0.002900
vn 0.532300 -0.846500 -0.004400
vn 0.707400 -0.706800 -0.004400
vn 0.846900 -0.531700 -0.003300
vn 0.944000 -0.330000 -0.001700
vn 0.993700 -0.111900 -0.000300
vn 0.001500 -1.000000 0.000000
vn 0.005800 -1.000000 0.000000
vn 0.012700 -0.999900 0.000000
vn 0.022000 -0.999800 0.000000
vn 0.033000 -0.999500 0.000000
vn 0.045300 -0.999000 0.000000
vn 0.058300 -0.998300 0.000000
usemtl None
s off
f 2//1 135//1 139//1
f 131//2 125//2 117//2
f 3//1 117//1 20//1
f 1//1 133//1 5//1
f 125//3 68//3 21//3
f 2//1 16//1 13//1
f 23//4 27//4 26//4
f 24//5 28//5 27//5
f 25//6 29//6 28//6
f 49//7 50//7 29//7
f 26//8 27//8 31//8
f 27//9 28//9 32//9
f 28//10 29//10 33//10
f 29//11 50//11 51//11
f 30//12 31//12 35//12
f 31//13 32//13 36//13
f 32//14 33//14 37//14
f 33//15 51//15 52//15
f 21//16 38//16 42//16
f 38//17 39//17 43//17
f 39//18 40//18 44//18
f 40//19 64//19 65//19
f 41//20 42//20 46//20
f 42//21 43//21 47//21
f 43//22 44//22 48//22
f 44//23 65//23 66//23
f 45//24 46//24 50//24
f 46//25 47//25 51//25
f 47//26 48//26 52//26
f 48//27 66//27 67//27
f 53//28 57//28 56//28
f 54//29 58//29 57//29
f 55//30 59//30 58//30
f 34//31 35//31 59//31
f 57//32 61//32 60//32
f 58//33 62//33 61//33
f 59//34 63//34 62//34
f 35//35 36//35 63//35
f 61//36 65//36 64//36
f 62//37 66//37 65//37
f 63//38 67//38 66//38
f 36//39 37//39 67//39
f 37//40 52//40 67//40
f 71//41 75//41 74//41
f 71//42 72//42 76//42
f 73//43 77//43 76//43
f 97//44 98//44 77//44
f 75//45 79//45 78//45
f 76//46 80//46 79//46
f 77//47 81//47 80//47
f 98//48 99//48 81//48
f 79//49 83//49 82//49
f 80//50 84//50 83//50
f 81//51 85//51 84//51
f 99//52 100//52 85//52
f 69//53 86//53 90//53
f 86//54 87//54 91//54
f 87//55 88//55 92//55
f 88//56 112//56 113//56
f 89//57 90//57 94//57
f 90//58 91//58 95//58
f 91//59 92//59 96//59
f 92//60 113//60 114//60
f 93//61 94//61 98//61
f 94//62 95//62 99//62
f 95//63 96//63 100//63
f 96//64 114//64 115//64
f 70//65 101//65 105//65
f 101//66 102//66 106//66
f 102//67 103//67 107//67
f 103//68 82//68 83//68
f 104//69 105//69 109//69
f 105//70 106//70 110//70
f 106//71 107//71 111//71
f 107//72 83//72 84//72
f 108//73 109//73 113//73
f 110//74 114//74 113//74
f 111//75 115//75 114//75
f 111//76 84//76 85//76
f 85//77 100//77 115//77
f 116//78 21//78 41//78
f 118//79 41//79 45//79
f 119//80 45//80 49//80
f 120//81 49//81 25//81
f 121//82 25//82 24//82
f 122//83 24//83 23//83
f 123//84 23//84 20//84
f 13//85 19//85 53//85
f 19//86 18//86 54//86
f 18//87 17//87 55//87
f 17//87 16//87 34//87
f 16//86 15//86 30//86
f 15//85 14//85 26//85
f 14//88 12//88 20//88
f 69//89 89//89 126//89
f 89//90 93//90 127//90
f 93//91 97//91 128//91
f 97//92 73//92 129//92
f 73//93 72//93 130//93
f 72//94 71//94 131//94
f 71//95 68//95 125//95
f 22//96 56//96 101//96
f 56//97 60//97 102//97
f 60//98 64//98 103//98
f 64//99 40//99 82//99
f 40//100 39//100 78//100
f 39//101 38//101 74//101
f 38//102 21//102 68//102
f 4//103 70//103 104//103
f 6//104 104//104 108//104
f 7//105 108//105 112//105
f 8//106 112//106 88//106
f 9//107 88//107 87//107
f 10//108 87//108 86//108
f 11//109 86//109 69//109
f 4//1 6//1 134//1
f 6//1 7//1 135//1
f 7//1 8//1 136//1
f 8//1 9//1 137//1
f 9//1 10//1 138//1
f 10//1 11//1 139//1
f 11//1 5//1 133//1
f 13//88 22//88 70//88
f 139//1 133//1 1//1
f 137//1 138//1 139//1
f 135//1 136//1 137//1
f 132//1 134//1 135//1
f 1//110 3//110 2//110
f 2//1 132//1 135//1
f 135//1 137//1 139//1
f 139//110 1//110 2//110
f 117//1 3//1 1//1
f 122//1 123//1 117//1
f 117//1 1//1 124//1
f 121//1 122//1 117//1
f 117//1 124//1 126//1
f 120//1 121//1 117//1
f 117//1 126//1 127//1
f 119//1 120//1 117//1
f 117//1 127//1 128//1
f 118//1 119//1 117//1
f 117//1 128//1 129//1
f 116//1 118//1 117//1
f 117//2 129//2 130//2
f 125//1 116//1 117//1
f 117//88 130//88 131//88
f 20//1 12//1 2//1
f 5//1 69//1 124//1
f 2//111 3//111 20//111
f 5//1 124//1 1//1
f 116//3 125//3 21//3
f 13//1 4//1 132//1
f 18//1 19//1 13//1
f 16//1 17//1 18//1
f 14//1 15//1 16//1
f 2//1 12//1 14//1
f 13//1 132//1 2//1
f 16//1 18//1 13//1
f 2//1 14//1 16//1
f 20//112 23//112 26//112
f 23//113 24//113 27//113
f 24//114 25//114 28//114
f 25//115 49//115 29//115
f 30//116 26//116 31//116
f 31//117 27//117 32//117
f 32//118 28//118 33//118
f 33//119 29//119 51//119
f 34//120 30//120 35//120
f 35//121 31//121 36//121
f 36//122 32//122 37//122
f 37//123 33//123 52//123
f 41//124 21//124 42//124
f 42//125 38//125 43//125
f 43//126 39//126 44//126
f 44//127 40//127 65//127
f 45//128 41//128 46//128
f 46//129 42//129 47//129
f 47//130 43//130 48//130
f 48//131 44//131 66//131
f 49//132 45//132 50//132
f 50//133 46//133 51//133
f 51//134 47//134 52//134
f 52//135 48//135 67//135
f 22//136 53//136 56//136
f 53//137 54//137 57//137
f 54//138 55//138 58//138
f 55//139 34//139 59//139
f 56//140 57//140 60//140
f 57//141 58//141 61//141
f 58//142 59//142 62//142
f 59//143 35//143 63//143
f 60//144 61//144 64//144
f 61//145 62//145 65//145
f 62//146 63//146 66//146
f 63//147 36//147 67//147
f 68//148 71//148 74//148
f 75//149 71//149 76//149
f 72//150 73//150 76//150
f 73//151 97//151 77//151
f 74//152 75//152 78//152
f 75//153 76//153 79//153
f 76//154 77//154 80//154
f 77//155 98//155 81//155
f 78//156 79//156 82//156
f 79//157 80//157 83//157
f 80//158 81//158 84//158
f 81//159 99//159 85//159
f 89//160 69//160 90//160
f 90//161 86//161 91//161
f 91//162 87//162 92//162
f 92//163 88//163 113//163
f 93//164 89//164 94//164
f 94//165 90//165 95//165
f 95//166 91//166 96//166
f 96//167 92//167 114//167
f 97//168 93//168 98//168
f 98//169 94//169 99//169
f 99//170 95//170 100//170
f 100//171 96//171 115//171
f 104//172 70//172 105//172
f 105//173 101//173 106//173
f 106//174 102//174 107//174
f 107//175 103//175 83//175
f 108//176 104//176 109//176
f 109//177 105//177 110//177
f 110//178 106//178 111//178
f 111//179 107//179 84//179
f 112//180 108//180 113//180
f 109//181 110//181 113//181
f 110//182 111//182 114//182
f 115//183 111//183 85//183
f 118//184 116//184 41//184
f 119//185 118//185 45//185
f 120//186 119//186 49//186
f 121//187 120//187 25//187
f 122//188 121//188 24//188
f 123//189 122//189 23//189
f 117//190 123//190 20//190
f 22//191 13//191 53//191
f 53//192 19//192 54//192
f 54//193 18//193 55//193
f 55//87 17//87 34//87
f 34//194 16//194 30//194
f 30//195 15//195 26//195
f 26//196 14//196 20//196
f 124//197 69//197 126//197
f 126//198 89//198 127//198
f 127//199 93//199 128//199
f 128//200 97//200 129//200
f 129//201 73//201 130//201
f 130//202 72//202 131//202
f 131//184 71//184 125//184
f 70//203 22//203 101//203
f 101//204 56//204 102//204
f 102//205 60//205 103//205
f 103//206 64//206 82//206
f 82//207 40//207 78//207
f 78//208 39//208 74//208
f 74//209 38//209 68//209
f 6//210 4//210 104//210
f 7//211 6//211 108//211
f 8//212 7//212 112//212
f 9//213 8//213 88//213
f 10//214 9//214 87//214
f 11//215 10//215 86//215
f 5//216 11//216 69//216
f 132//1 4//1 134//1
f 134//1 6//1 135//1
f 135//1 7//1 136//1
f 136//1 8//1 137//1
f 137//1 9//1 138//1
f 138//1 10//1 139//1
f 139//1 11//1 133//1
f 4//88 13//88 70//88
