# Blender v2.72 (sub 0) OBJ File: 'RG.blend'
# www.blender.org
mtllib pyramid.mtl
o pyramid_Cube.025
v -0.981209 -1.000000 0.971520
v -0.974314 -1.000000 -0.975353
v 0.973199 -1.000000 -0.972668
v 0.964168 -1.000000 0.967595
v -0.916624 -1.000000 1.000000
v -1.000000 -1.000000 0.916624
v -0.965796 -1.000000 0.979272
v -0.932890 -1.000000 0.998398
v -0.948530 -1.000000 0.993653
v -0.962945 -1.000000 0.985949
v -0.975580 -1.000000 0.975580
v -0.985949 -1.000000 0.962945
v -0.993653 -1.000000 0.948530
v -0.998398 -1.000000 0.932890
v -0.000769 1.000000 0.000705
v -0.000705 1.000000 0.000769
v -0.000766 1.000004 0.000716
v -0.000761 1.000007 0.000726
v -0.000754 1.000008 0.000737
v -0.000746 1.000009 0.000746
v -0.000737 1.000008 0.000754
v -0.000726 1.000007 0.000761
v -0.000716 1.000004 0.000766
v -1.000000 -1.000000 -0.916624
v -0.916624 -1.000000 -1.000000
v -0.971180 -1.000000 -0.974652
v -0.998398 -1.000000 -0.932890
v -0.993653 -1.000000 -0.948530
v -0.985949 -1.000000 -0.962945
v -0.975580 -1.000000 -0.975580
v -0.962945 -1.000000 -0.985949
v -0.948530 -1.000000 -0.993653
v -0.932890 -1.000000 -0.998398
v -0.000705 1.000000 -0.000769
v -0.000769 1.000000 -0.000705
v -0.000716 1.000004 -0.000766
v -0.000726 1.000007 -0.000761
v -0.000737 1.000008 -0.000754
v -0.000746 1.000009 -0.000746
v -0.000754 1.000008 -0.000737
v -0.000761 1.000007 -0.000726
v -0.000766 1.000004 -0.000716
v 0.916624 -1.000000 -1.000000
v 1.000000 -1.000000 -0.916624
v 0.968890 -1.000000 -0.978534
v 0.932890 -1.000000 -0.998398
v 0.948530 -1.000000 -0.993653
v 0.962945 -1.000000 -0.985949
v 0.975580 -1.000000 -0.975580
v 0.985949 -1.000000 -0.962945
v 0.993653 -1.000000 -0.948530
v 0.998398 -1.000000 -0.932890
v 0.000769 1.000000 -0.000705
v 0.000705 1.000000 -0.000769
v 0.000766 1.000004 -0.000716
v 0.000761 1.000007 -0.000726
v 0.000754 1.000008 -0.000737
v 0.000746 1.000009 -0.000746
v 0.000737 1.000008 -0.000754
v 0.000726 1.000007 -0.000761
v 0.000716 1.000004 -0.000766
v 1.000000 -1.000000 0.916624
v 0.916624 -1.000000 1.000000
v 0.959315 -1.000000 0.978257
v 0.998398 -1.000000 0.932890
v 0.993653 -1.000000 0.948530
v 0.985949 -1.000000 0.962945
v 0.975580 -1.000000 0.975580
v 0.962945 -1.000000 0.985949
v 0.948530 -1.000000 0.993653
v 0.932890 -1.000000 0.998398
v 0.000705 1.000000 0.000769
v 0.000769 1.000000 0.000705
v 0.000716 1.000004 0.000766
v 0.000726 1.000007 0.000761
v 0.000737 1.000008 0.000754
v 0.000746 1.000009 0.000746
v 0.000754 1.000008 0.000737
v 0.000761 1.000007 0.000726
v 0.000766 1.000004 0.000716
vn 0.000000 0.446900 -0.894600
vn 0.000000 0.446900 0.894600
vn 0.000000 -1.000000 0.000000
vn 0.894600 0.446900 0.000000
vn 0.000000 1.000000 0.000000
vn -0.003400 1.000000 -0.000400
vn -0.084700 0.477500 0.874600
vn -0.243300 0.521000 0.818100
vn -0.403000 0.551100 0.730600
vn -0.520300 0.567200 0.638500
vn -0.639500 0.564900 0.521400
vn -0.731000 0.554200 0.398000
vn -0.816900 0.522300 0.244600
vn -0.872500 0.480500 0.089200
vn -0.086200 0.476600 -0.874900
vn -0.247500 0.522400 -0.816000
vn -0.393200 0.551600 -0.735600
vn -0.523100 0.565700 -0.637400
vn -0.637400 0.565700 -0.523100
vn -0.735600 0.551600 -0.393200
vn -0.816000 0.522400 -0.247500
vn -0.874900 0.476600 -0.086200
vn 0.874900 0.476600 -0.086200
vn 0.816000 0.522400 -0.247500
vn 0.735600 0.551600 -0.393200
vn 0.637400 0.565700 -0.523100
vn 0.523100 0.565700 -0.637400
vn 0.393200 0.551500 -0.735600
vn 0.247500 0.522400 -0.816000
vn 0.086200 0.476600 -0.874900
vn 0.086200 0.476600 0.874900
vn 0.247500 0.522400 0.816000
vn 0.393200 0.551600 0.735600
vn 0.523100 0.565700 0.637400
vn 0.637400 0.565700 0.523100
vn 0.735600 0.551600 0.393200
vn 0.816000 0.522400 0.247500
vn 0.874900 0.476600 0.086200
vn -0.894600 0.446900 0.000000
vn 0.000100 0.447000 -0.894600
vn -0.000100 0.447000 0.894600
vn 0.407700 0.783800 -0.468500
vn -0.000000 0.633100 0.774100
vn 0.396600 0.783200 -0.478800
vn 0.418300 0.779600 -0.466000
vn -0.765300 0.643700 0.000000
vn 0.377800 0.843500 0.381800
vn 0.368500 0.770300 0.520400
vn 0.364200 0.755600 0.544500
vn 0.411000 0.857100 0.310600
vn 0.000000 0.634900 -0.772600
vn -0.408600 0.782800 0.469400
vn -0.397400 0.782300 0.479700
vn -0.431800 0.802200 0.412300
vn 0.763800 0.645500 0.000000
vn -0.377800 0.843500 -0.381800
vn -0.368500 0.770300 -0.520400
vn -0.364200 0.755600 -0.544500
vn -0.411000 0.857100 -0.310600
vn 0.001700 0.940300 0.340500
vn 0.407800 0.817300 -0.407100
vn -0.628200 0.778100 -0.000600
vn 0.412900 0.835400 0.362900
vn -0.000600 0.777900 -0.628300
vn -0.408700 0.816400 0.408000
vn 0.355100 0.934800 0.001800
vn -0.409700 0.816500 -0.406700
vn -0.411600 0.823000 -0.391400
vn 0.006900 0.992600 -0.121400
vn 0.002000 1.000000 0.002100
vn 0.001400 0.988600 -0.150700
vn 0.357800 0.933800 0.001600
vn -0.010000 0.941300 0.337300
vn -0.001200 1.000000 0.001900
vn -0.086200 0.476600 0.874900
vn -0.247500 0.522400 0.816000
vn -0.393200 0.551600 0.735600
vn -0.523100 0.565700 0.637400
vn -0.637400 0.565700 0.523100
vn -0.735600 0.551600 0.393200
vn -0.816000 0.522400 0.247500
vn -0.874900 0.476600 0.086200
vn -0.084500 0.477200 -0.874700
vn -0.247300 0.522900 -0.815700
vn -0.403500 0.549900 -0.731200
vn -0.518000 0.567100 -0.640400
vn -0.640900 0.565200 -0.519500
vn -0.729800 0.554300 -0.400200
vn -0.816800 0.522200 -0.245100
vn -0.874200 0.477100 -0.090100
vn 0.875100 0.475400 -0.090300
vn 0.816000 0.523700 -0.244900
vn 0.729800 0.554300 -0.400300
vn 0.637700 0.565400 -0.523100
vn 0.519800 0.568700 -0.637500
vn 0.403800 0.550200 -0.730900
vn 0.243700 0.522000 -0.817400
vn 0.088600 0.478600 -0.873600
vn 0.084500 0.477200 0.874700
vn 0.247300 0.522900 0.815700
vn 0.403500 0.549900 0.731200
vn 0.518000 0.567100 0.640400
vn 0.640900 0.565200 0.519500
vn 0.729800 0.554300 0.400200
vn 0.816800 0.522200 0.245100
vn 0.874200 0.477100 0.090100
usemtl None
s off
f 54//1 43//1 25//1
f 16//2 5//2 63//2
f 1//3 2//3 3//3
f 73//4 62//4 44//4
f 26//5 2//5 1//5
f 26//3 25//3 43//3
f 45//3 44//3 62//3
f 4//3 64//3 63//3
f 77//6 57//6 17//6
f 5//3 8//3 7//3
f 8//3 9//3 7//3
f 9//3 10//3 7//3
f 10//3 11//3 7//3
f 11//3 12//3 7//3
f 12//3 13//3 7//3
f 13//3 14//3 7//3
f 14//3 6//3 7//3
f 24//3 27//3 26//3
f 27//3 28//3 26//3
f 28//3 29//3 26//3
f 29//3 30//3 26//3
f 30//3 31//3 26//3
f 31//3 32//3 26//3
f 32//3 33//3 26//3
f 33//3 25//3 26//3
f 43//3 46//3 45//3
f 46//3 47//3 45//3
f 47//3 48//3 45//3
f 48//3 49//3 45//3
f 49//3 50//3 45//3
f 50//3 51//3 45//3
f 51//3 52//3 45//3
f 52//3 44//3 45//3
f 62//3 65//3 64//3
f 65//3 66//3 64//3
f 66//3 67//3 64//3
f 67//3 68//3 64//3
f 68//3 69//3 64//3
f 69//3 70//3 64//3
f 70//3 71//3 64//3
f 71//3 63//3 64//3
f 5//7 16//7 23//7
f 23//8 22//8 9//8
f 22//9 21//9 10//9
f 21//10 20//10 11//10
f 11//11 20//11 19//11
f 19//12 18//12 13//12
f 18//13 17//13 14//13
f 17//14 15//14 6//14
f 34//15 25//15 33//15
f 33//16 32//16 37//16
f 37//17 32//17 31//17
f 38//18 31//18 30//18
f 30//19 29//19 40//19
f 29//20 28//20 41//20
f 41//21 28//21 27//21
f 27//22 24//22 35//22
f 53//23 44//23 52//23
f 52//24 51//24 56//24
f 56//25 51//25 50//25
f 50//26 49//26 58//26
f 58//27 49//27 48//27
f 59//28 48//28 47//28
f 60//29 47//29 46//29
f 46//30 43//30 54//30
f 72//31 63//31 71//31
f 71//32 70//32 75//32
f 75//33 70//33 69//33
f 76//34 69//34 68//34
f 68//35 67//35 78//35
f 67//36 66//36 79//36
f 79//37 66//37 65//37
f 65//38 62//38 73//38
f 35//39 24//39 6//39
f 34//40 54//40 25//40
f 72//41 16//41 63//41
f 4//3 1//3 3//3
f 53//4 73//4 44//4
f 26//3 7//3 24//3
f 2//3 43//3 3//3
f 7//5 26//5 1//5
f 62//3 64//3 4//3
f 7//3 6//3 24//3
f 21//42 22//42 23//42
f 26//5 43//5 2//5
f 43//3 45//3 3//3
f 62//3 4//3 3//3
f 45//5 62//5 3//5
f 5//3 7//3 1//3
f 5//3 4//3 63//3
f 23//43 16//43 72//43
f 5//3 1//3 4//3
f 19//44 20//44 21//44
f 17//45 18//45 19//45
f 35//46 15//46 17//46
f 41//47 42//47 35//47
f 39//48 40//48 41//48
f 37//49 38//49 39//49
f 34//50 36//50 37//50
f 61//51 54//51 34//51
f 59//52 60//52 61//52
f 57//53 58//53 59//53
f 55//54 56//54 57//54
f 73//55 53//55 55//55
f 79//56 80//56 73//56
f 77//57 78//57 79//57
f 75//58 76//58 77//58
f 72//59 74//59 75//59
f 21//60 23//60 72//60
f 17//61 19//61 21//61
f 41//62 35//62 17//62
f 37//63 39//63 41//63
f 61//64 34//64 37//64
f 57//65 59//65 61//65
f 73//66 55//66 57//66
f 77//67 79//67 73//67
f 72//68 75//68 77//68
f 17//69 21//69 72//69
f 37//70 41//70 17//70
f 57//71 61//71 37//71
f 77//72 73//72 57//72
f 17//73 72//73 77//73
f 57//74 37//74 17//74
f 8//75 5//75 23//75
f 8//76 23//76 9//76
f 9//77 22//77 10//77
f 10//78 21//78 11//78
f 12//79 11//79 19//79
f 12//80 19//80 13//80
f 13//81 18//81 14//81
f 14//82 17//82 6//82
f 36//83 34//83 33//83
f 36//84 33//84 37//84
f 38//85 37//85 31//85
f 39//86 38//86 30//86
f 39//87 30//87 40//87
f 40//88 29//88 41//88
f 42//89 41//89 27//89
f 42//90 27//90 35//90
f 55//91 53//91 52//91
f 55//92 52//92 56//92
f 57//93 56//93 50//93
f 57//94 50//94 58//94
f 59//95 58//95 48//95
f 60//96 59//96 47//96
f 61//97 60//97 46//97
f 61//98 46//98 54//98
f 74//99 72//99 71//99
f 74//100 71//100 75//100
f 76//101 75//101 69//101
f 77//102 76//102 68//102
f 77//103 68//103 78//103
f 78//104 67//104 79//104
f 80//105 79//105 65//105
f 80//106 65//106 73//106
f 15//39 35//39 6//39
