# Blender v2.72 (sub 0) OBJ File: ''
# www.blender.org
mtllib triangle.mtl
o triangle
v -0.465965 -0.500000 0.931929
v -0.465965 -0.465965 1.000000
v -0.500000 -0.465965 1.000000
v -0.465965 -0.498841 0.941894
v -0.465965 -0.495439 0.953511
v -0.465965 -0.490031 0.965965
v -0.474771 -0.498841 0.941894
v -0.475048 -0.497461 0.952709
v -0.474899 -0.494020 0.963917
v -0.474717 -0.489233 0.974695
v -0.482985 -0.495439 0.953511
v -0.483046 -0.493998 0.963999
v -0.482177 -0.491114 0.973248
v -0.481464 -0.487392 0.981461
v -0.485615 -0.485615 0.985615
v -0.474771 -0.465965 1.007647
v -0.482985 -0.465965 1.012459
v -0.490031 -0.465965 1.014098
v -0.465965 -0.474771 0.990035
v -0.475123 -0.475048 0.997536
v -0.483037 -0.474899 1.002158
v -0.489211 -0.474717 1.003727
v -0.465965 -0.482985 0.978418
v -0.474951 -0.483046 0.985902
v -0.482185 -0.482177 0.991122
v -0.487390 -0.481464 0.993318
v -0.498841 -0.474771 0.990035
v -0.495439 -0.482985 0.978418
v -0.490031 -0.490031 0.965965
v -0.498841 -0.465965 1.007647
v -0.497461 -0.475123 0.997386
v -0.494020 -0.483037 0.985882
v -0.489233 -0.489211 0.974738
v -0.495439 -0.465965 1.012459
v -0.493998 -0.474951 1.002094
v -0.491114 -0.482185 0.991106
v -0.487392 -0.487390 0.981466
v -0.465965 -0.500000 -1.000000
v -0.500000 -0.500000 -1.000000
v -0.471637 -0.500000 -1.000000
v -0.477310 -0.500000 -1.000000
v -0.482982 -0.500000 -1.000000
v -0.488655 -0.500000 -1.000000
v -0.494327 -0.500000 -1.000000
v 0.463708 -0.500000 -1.000000
v 0.500000 -0.500000 -1.000000
v 0.469757 -0.500000 -1.000000
v 0.475805 -0.500000 -1.000000
v 0.481854 -0.500000 -1.000000
v 0.487903 -0.500000 -1.000000
v 0.493951 -0.500000 -1.000000
v 0.500000 -0.500000 0.931929
v 0.465965 -0.465965 1.000000
v 0.463708 -0.500000 0.931929
v 0.499095 -0.495018 0.949541
v 0.495852 -0.489209 0.965970
v 0.490499 -0.482982 0.980063
v 0.498511 -0.503824 0.931929
v 0.497380 -0.498693 0.950245
v 0.494091 -0.492941 0.966075
v 0.489356 -0.487369 0.978422
v 0.494723 -0.506230 0.931929
v 0.493531 -0.501047 0.949901
v 0.490819 -0.495553 0.964370
v 0.487171 -0.490733 0.974780
v 0.485138 -0.492807 0.971230
v 0.465634 -0.470947 0.997682
v 0.465249 -0.476756 0.990877
v 0.464836 -0.482982 0.980063
v 0.475024 -0.470947 0.997682
v 0.474961 -0.476354 0.994923
v 0.474431 -0.481958 0.988040
v 0.473879 -0.487348 0.978466
v 0.483398 -0.476756 0.990877
v 0.483116 -0.482000 0.987996
v 0.481882 -0.486624 0.982227
v 0.480849 -0.490731 0.974784
v 0.472844 -0.503824 0.931929
v 0.481444 -0.506230 0.931929
v 0.488903 -0.507049 0.931929
v 0.464038 -0.495018 0.949541
v 0.473555 -0.498768 0.950095
v 0.481841 -0.501079 0.949799
v 0.488372 -0.501864 0.949433
v 0.464423 -0.489209 0.965970
v 0.473757 -0.492951 0.966093
v 0.481298 -0.495561 0.964354
v 0.486775 -0.496659 0.962927
v -0.500000 0.500000 1.000000
v -0.465965 0.500000 1.000000
v -0.494327 0.500000 1.000000
v -0.488655 0.500000 1.000000
v -0.482982 0.500000 1.000000
v -0.477310 0.500000 1.000000
v -0.471637 0.500000 1.000000
v 0.465965 0.500000 1.000000
v 0.500000 0.500000 1.000000
v 0.471637 0.500000 1.000000
v 0.477310 0.500000 1.000000
v 0.482982 0.500000 1.000000
v 0.488655 0.500000 1.000000
v 0.494327 0.500000 1.000000
v -0.465965 0.475933 0.951867
v -0.500000 0.500000 1.000000
v -0.471637 0.479944 0.959889
v -0.477310 0.483956 0.967911
v -0.482982 0.487967 0.975933
v -0.488655 0.491978 0.983956
v -0.494327 0.495989 0.991978
v -0.500000 -0.500000 -1.000000
v -0.465965 -0.475933 -0.951867
v -0.500000 -0.499180 -0.998360
v -0.500000 -0.496776 -0.993551
v -0.500000 -0.492951 -0.985902
v -0.500000 -0.487967 -0.975933
v -0.500000 -0.482162 -0.964324
v 0.465965 -0.475933 -0.951867
v 0.500000 -0.500000 -1.000000
v 0.500000 -0.500000 -1.000000
v 0.471637 -0.479944 -0.959889
v 0.477310 -0.483956 -0.967911
v 0.482982 -0.487967 -0.975933
v 0.471637 -0.479944 -0.959889
v 0.476952 -0.483702 -0.967405
v 0.482103 -0.487345 -0.974690
v 0.486997 -0.490805 -0.981611
v 0.477310 -0.483956 -0.967911
v 0.482103 -0.487345 -0.974690
v 0.486395 -0.490380 -0.980759
v 0.490159 -0.493041 -0.986082
v 0.491907 -0.494277 -0.988554
v 0.500000 -0.500000 -1.000000
v 0.500000 -0.500000 -1.000000
v 0.500000 -0.500000 -1.000000
v 0.494327 -0.495989 -0.991978
v 0.494327 -0.495989 -0.991978
v 0.494327 -0.495989 -0.991978
v 0.494327 -0.495989 -0.991978
v 0.488655 -0.491978 -0.983956
v 0.488655 -0.491978 -0.983956
v 0.488655 -0.491978 -0.983956
v 0.488655 -0.491978 -0.983956
v 0.494327 -0.495989 -0.991978
v 0.488655 -0.491978 -0.983956
v 0.482982 -0.487967 -0.975933
v 0.500000 -0.500000 -1.000000
v 0.494327 -0.495989 -0.991978
v 0.488655 -0.491978 -0.983956
v 0.482982 -0.487967 -0.975933
v 0.500000 -0.500000 -1.000000
v 0.494327 -0.495989 -0.991978
v 0.488655 -0.491978 -0.983956
v 0.482982 -0.487967 -0.975933
v 0.465965 0.475933 0.951867
v 0.500000 0.500000 1.000000
v 0.500000 0.482162 0.964324
v 0.500000 0.487967 0.975933
v 0.500000 0.492951 0.985902
v 0.500000 0.496776 0.993551
v 0.500000 0.499180 0.998360
vn 0.000000 0.000000 1.000000
vn 0.000000 -1.000000 0.000000
vn 0.000000 0.894400 -0.447200
vn -0.013400 -0.993200 0.115500
vn 0.172400 -0.945300 0.276900
vn 0.299200 -0.875200 0.380000
vn -0.252100 -0.960700 0.116100
vn -0.005300 -0.955900 0.293600
vn 0.153400 -0.904100 0.398900
vn -0.472400 -0.873500 0.117200
vn -0.181100 -0.933900 0.308300
vn 0.021200 -0.911300 0.411100
vn 0.489400 -0.657100 0.573300
vn 0.345200 -0.709900 0.614000
vn 0.141700 -0.751000 0.645000
vn 0.433800 -0.739400 0.514800
vn 0.296200 -0.786700 0.541600
vn 0.121400 -0.823100 0.554800
vn 0.378600 -0.806900 0.453300
vn 0.245400 -0.845300 0.474700
vn 0.124300 -0.861200 0.492800
vn -0.933800 -0.319900 0.160000
vn -0.808500 -0.569100 0.149700
vn -0.657000 -0.742700 0.129200
vn -0.607600 -0.640000 0.470400
vn -0.475800 -0.786800 0.393100
vn -0.356300 -0.872800 0.333700
vn -0.176700 -0.759000 0.626600
vn -0.146000 -0.841600 0.520000
vn -0.149100 -0.884400 0.442200
vn 0.905500 -0.390800 0.165400
vn 0.859600 -0.396400 0.322600
vn 0.790800 -0.384100 0.476600
vn 0.484200 -0.831600 0.271900
vn 0.441900 -0.808000 0.389600
vn 0.378900 -0.782000 0.494900
vn 0.124600 -0.950300 0.285300
vn 0.120200 -0.921400 0.369600
vn 0.138900 -0.887600 0.439200
vn 0.022900 -0.422900 0.905900
vn -0.219100 -0.736000 0.640600
vn -0.309900 -0.818800 0.483300
vn 0.400700 -0.420200 0.814200
vn 0.006600 -0.775700 0.631100
vn -0.156400 -0.856800 0.491300
vn 0.655600 -0.390400 0.646300
vn 0.212100 -0.784100 0.583200
vn -0.021100 -0.874100 0.485200
vn -0.367000 -0.892400 0.262700
vn -0.249300 -0.929100 0.273300
vn -0.099100 -0.954900 0.279900
vn -0.355800 -0.876800 0.323300
vn -0.237700 -0.911200 0.336600
vn -0.096300 -0.932400 0.348200
vn -0.343400 -0.854200 0.390300
vn -0.219100 -0.889000 0.402200
vn -0.108500 -0.909800 0.400700
vn 0.000000 0.000000 -1.000000
vn 0.000000 1.000000 0.000000
vn 0.577400 -0.577400 -0.577400
vn 0.707100 -0.707100 0.000000
vn 0.742800 0.371400 -0.557100
vn -0.816500 0.408200 0.408200
vn 0.000000 0.007900 1.000000
vn 0.000000 0.012900 0.999900
vn 0.000000 0.014600 0.999900
vn -0.130500 -0.991500 0.000000
vn -0.382800 -0.923800 -0.000100
vn -0.608700 -0.793400 0.000100
vn -0.793100 -0.609100 0.000200
vn -0.923800 -0.382800 0.000100
vn -0.991500 -0.129800 -0.000600
vn 0.247900 0.000000 0.968800
vn 0.630800 0.000300 0.775900
vn 0.835900 0.000100 0.548800
vn 0.934800 -0.000100 0.355100
vn 0.981100 0.000500 0.193500
vn 0.998700 0.002200 0.050700
vn 0.000000 -1.000000 -0.002000
vn 0.000000 -1.000000 -0.003200
vn 0.000000 -1.000000 -0.003600
vn 0.000000 -0.962200 0.272200
vn 0.001100 -0.942800 0.333300
vn 0.000700 -0.914700 0.404100
vn -0.001000 -0.866600 0.499000
vn -0.003600 -0.760500 0.649300
vn -0.005700 -0.421500 0.906800
vn 1.000000 0.000000 0.000000
vn 0.013100 -0.991800 0.126900
vn 0.197300 -0.937900 0.285400
vn 0.306500 -0.871800 0.382000
vn -0.214700 -0.967800 0.131700
vn 0.006100 -0.954800 0.297200
vn 0.148000 -0.905600 0.397500
vn -0.456900 -0.880800 0.123900
vn -0.192100 -0.932700 0.305100
vn -0.021800 -0.915800 0.401100
vn 0.498500 -0.649600 0.574000
vn 0.361000 -0.700000 0.616200
vn 0.150600 -0.747200 0.647300
vn 0.445500 -0.731000 0.516900
vn 0.302400 -0.783300 0.543000
vn 0.116200 -0.825000 0.553000
vn 0.384100 -0.803600 0.454700
vn 0.239400 -0.847900 0.473000
vn 0.082000 -0.874400 0.478200
vn -0.947100 -0.287100 0.143500
vn -0.836300 -0.532400 0.131500
vn -0.671000 -0.731300 0.122400
vn -0.647000 -0.610000 0.457500
vn -0.490700 -0.779500 0.389500
vn -0.347100 -0.875600 0.336000
vn -0.190300 -0.754700 0.627800
vn -0.136100 -0.843500 0.519600
vn -0.092200 -0.890600 0.445300
vn 0.921400 -0.358900 0.148900
vn 0.885100 -0.355500 0.300400
vn 0.804500 -0.366300 0.467500
vn 0.517700 -0.815000 0.260300
vn 0.455900 -0.801900 0.386100
vn 0.368900 -0.786000 0.496100
vn 0.133700 -0.949800 0.282800
vn 0.112300 -0.921800 0.371100
vn 0.086000 -0.892300 0.443300
vn -0.022000 -0.454300 0.890600
vn -0.245900 -0.742300 0.623300
vn -0.316000 -0.818900 0.479200
vn 0.339700 -0.466900 0.816500
vn -0.007500 -0.779400 0.626400
vn -0.151300 -0.856500 0.493600
vn 0.636000 -0.410000 0.653700
vn 0.225800 -0.779400 0.584400
vn 0.022100 -0.868600 0.495000
vn -0.372900 -0.891000 0.259100
vn -0.259600 -0.927700 0.268300
vn -0.104900 -0.955000 0.277600
vn -0.363600 -0.875600 0.318100
vn -0.242100 -0.910900 0.334300
vn -0.092400 -0.932200 0.350000
vn -0.347400 -0.853900 0.387500
vn -0.214300 -0.889000 0.404700
vn -0.073300 -0.906200 0.416500
vn 0.000000 0.917700 -0.397300
vn 0.269100 0.403600 0.874500
vn 0.780700 -0.390400 -0.488000
vn -0.131000 -0.131000 -0.982700
vn -0.621900 -0.475800 0.621900
vn -0.169000 0.507100 0.845200
vn 0.000000 0.316200 0.948700
vn 0.655700 0.000000 0.755000
vn 0.505400 0.005200 0.862800
vn 0.226500 0.011200 0.973900
vn -0.290000 0.016100 0.956900
vn -0.816400 0.013200 0.577300
vn -0.988700 0.000000 0.149800
vn 0.000000 -1.000000 0.000600
vn 0.000000 -1.000000 0.002300
vn 0.000000 -1.000000 0.005100
vn 0.000000 -1.000000 0.008600
vn 0.000000 -0.999900 0.012700
vn 0.000000 -0.999900 0.017000
vn 0.000000 -0.002400 1.000000
vn 0.000000 -0.009300 1.000000
vn 0.000000 -0.020300 0.999800
vn 0.000000 -0.034400 0.999400
vn 0.000000 -0.050600 0.998700
vn 0.000000 -0.067900 0.997700
vn -0.386100 -0.922500 0.000000
vn -0.269400 -0.963000 -0.001500
vn -0.109200 -0.994000 -0.002900
vn 0.139400 -0.990200 -0.004100
vn 0.536200 -0.844100 -0.004600
vn 0.931800 -0.362900 -0.002900
vn 0.003100 -0.993300 0.115500
vn 0.002700 -0.959700 0.281100
vn 0.000900 -0.917300 0.398300
vn -0.000800 -0.870300 0.492400
vn -0.001400 -0.816500 0.577400
vn 0.000000 -0.749300 0.662200
vn 0.000000 -0.894400 0.447200
vn -0.000000 -0.895300 0.445400
vn -0.000000 -0.894700 0.446700
vn 0.000000 -0.894500 0.447000
vn -0.000000 -0.894400 0.447300
vn 0.000000 -0.894600 0.446900
vn -1.000000 0.000000 0.000000
g Cube_Cube.002_None
usemtl None
s off
f 155//1 97//1 52//1
f 96//1 98//1 99//1
f 42//1 110//1 119//1
f 90//1 2//1 53//1
f 38//2 45//2 54//2
f 154//3 117//3 111//3
f 1//4 4//4 8//4
f 4//5 5//5 9//5
f 5//6 6//6 10//6
f 7//7 8//7 12//7
f 8//8 9//8 13//8
f 9//9 10//9 14//9
f 11//10 12//10 33//10
f 12//11 13//11 37//11
f 13//12 14//12 15//12
f 16//13 20//13 19//13
f 17//14 21//14 20//14
f 18//15 22//15 21//15
f 20//16 24//16 23//16
f 21//17 25//17 24//17
f 22//18 26//18 25//18
f 24//19 10//19 6//19
f 25//20 14//20 10//20
f 26//21 15//21 14//21
f 27//22 31//22 30//22
f 28//23 32//23 31//23
f 29//24 33//24 32//24
f 31//25 35//25 34//25
f 32//26 36//26 35//26
f 33//27 37//27 36//27
f 35//28 22//28 18//28
f 36//29 26//29 22//29
f 37//30 15//30 26//30
f 55//31 59//31 58//31
f 56//32 60//32 59//32
f 57//33 61//33 60//33
f 59//34 63//34 62//34
f 60//35 64//35 63//35
f 61//36 65//36 64//36
f 63//37 84//37 80//37
f 64//38 88//38 84//38
f 65//39 66//39 88//39
f 53//40 67//40 71//40
f 67//41 68//41 72//41
f 68//42 69//42 73//42
f 70//43 71//43 75//43
f 71//44 72//44 76//44
f 72//45 73//45 77//45
f 74//46 75//46 61//46
f 75//47 76//47 65//47
f 76//48 77//48 66//48
f 78//49 82//49 81//49
f 79//50 83//50 82//50
f 80//51 84//51 83//51
f 82//52 86//52 85//52
f 83//53 87//53 86//53
f 84//54 88//54 87//54
f 86//55 73//55 69//55
f 87//56 77//56 73//56
f 88//57 66//57 77//57
f 120//58 124//58 123//58
f 121//59 125//59 124//59
f 122//1 126//1 125//1
f 124//1 128//1 127//1
f 125//60 129//60 128//60
f 126//1 130//1 129//1
f 128//1 149//1 145//1
f 129//1 153//1 149//1
f 130//61 131//61 153//61
f 132//1 136//1 135//1
f 133//1 137//1 136//1
f 134//1 138//1 137//1
f 136//1 140//1 139//1
f 137//1 141//1 140//1
f 138//1 142//1 141//1
f 140//1 126//1 122//1
f 141//59 130//59 126//59
f 142//62 131//62 130//62
f 143//1 147//1 146//1
f 144//1 148//1 147//1
f 145//1 149//1 148//1
f 147//1 151//1 150//1
f 148//1 152//1 151//1
f 149//1 153//1 152//1
f 151//1 138//1 134//1
f 152//1 142//1 138//1
f 153//63 131//63 142//63
f 90//64 95//64 16//64
f 95//65 94//65 17//65
f 94//66 93//66 18//66
f 93//65 92//65 34//65
f 92//64 91//64 30//64
f 30//64 91//64 89//64
f 38//67 1//67 7//67
f 40//68 7//68 11//68
f 41//69 11//69 29//69
f 42//70 29//70 28//70
f 43//71 28//71 27//71
f 44//72 27//72 3//72
f 96//73 53//73 70//73
f 98//74 70//74 74//74
f 99//75 74//75 57//75
f 100//76 57//76 56//76
f 101//77 56//77 55//77
f 102//78 55//78 52//78
f 45//79 47//79 78//79
f 47//80 48//80 79//80
f 48//81 49//81 80//81
f 49//80 50//80 62//80
f 50//79 51//79 58//79
f 51//2 46//2 52//2
f 1//82 54//82 81//82
f 4//83 81//83 85//83
f 5//84 85//84 69//84
f 6//85 69//85 68//85
f 23//86 68//86 67//86
f 19//87 67//87 53//87
f 104//3 109//3 112//3
f 109//3 108//3 113//3
f 108//3 107//3 114//3
f 107//3 106//3 115//3
f 106//3 105//3 116//3
f 105//3 103//3 111//3
f 104//3 155//3 160//3
f 109//3 160//3 159//3
f 108//3 159//3 158//3
f 107//3 158//3 157//3
f 106//3 157//3 156//3
f 156//3 154//3 103//3
f 118//3 135//3 160//3
f 135//3 139//3 159//3
f 139//3 122//3 158//3
f 122//3 121//3 157//3
f 121//3 120//3 156//3
f 120//3 117//3 154//3
f 119//3 110//3 112//3
f 143//3 112//3 113//3
f 144//3 113//3 114//3
f 145//3 114//3 115//3
f 127//3 115//3 116//3
f 116//3 111//3 117//3
f 46//1 51//1 132//1
f 51//1 50//1 133//1
f 50//1 49//1 134//1
f 49//1 48//1 150//1
f 48//1 47//1 146//1
f 47//1 45//1 119//1
f 3//1 89//1 104//1
f 52//1 46//1 118//1
f 95//1 90//1 96//1
f 118//88 155//88 52//88
f 93//1 94//1 95//1
f 91//1 92//1 93//1
f 104//1 89//1 91//1
f 102//1 97//1 155//1
f 104//1 91//1 93//1
f 101//1 102//1 155//1
f 104//1 93//1 95//1
f 100//1 101//1 155//1
f 104//1 95//1 96//1
f 99//1 100//1 155//1
f 155//1 104//1 96//1
f 44//1 39//1 110//1
f 96//1 99//1 155//1
f 42//1 43//1 44//1
f 40//1 41//1 42//1
f 45//1 38//1 40//1
f 42//1 44//1 110//1
f 119//1 45//1 40//1
f 96//1 90//1 53//1
f 119//58 40//58 42//58
f 1//2 38//2 54//2
f 103//3 154//3 111//3
f 7//89 1//89 8//89
f 8//90 4//90 9//90
f 9//91 5//91 10//91
f 11//92 7//92 12//92
f 12//93 8//93 13//93
f 13//94 9//94 14//94
f 29//95 11//95 33//95
f 33//96 12//96 37//96
f 37//97 13//97 15//97
f 2//98 16//98 19//98
f 16//99 17//99 20//99
f 17//100 18//100 21//100
f 19//101 20//101 23//101
f 20//102 21//102 24//102
f 21//103 22//103 25//103
f 23//104 24//104 6//104
f 24//105 25//105 10//105
f 25//106 26//106 14//106
f 3//107 27//107 30//107
f 27//108 28//108 31//108
f 28//109 29//109 32//109
f 30//110 31//110 34//110
f 31//111 32//111 35//111
f 32//112 33//112 36//112
f 34//113 35//113 18//113
f 35//114 36//114 22//114
f 36//115 37//115 26//115
f 52//116 55//116 58//116
f 55//117 56//117 59//117
f 56//118 57//118 60//118
f 58//119 59//119 62//119
f 59//120 60//120 63//120
f 60//121 61//121 64//121
f 62//122 63//122 80//122
f 63//123 64//123 84//123
f 64//124 65//124 88//124
f 70//125 53//125 71//125
f 71//126 67//126 72//126
f 72//127 68//127 73//127
f 74//128 70//128 75//128
f 75//129 71//129 76//129
f 76//130 72//130 77//130
f 57//131 74//131 61//131
f 61//132 75//132 65//132
f 65//133 76//133 66//133
f 54//134 78//134 81//134
f 78//135 79//135 82//135
f 79//136 80//136 83//136
f 81//137 82//137 85//137
f 82//138 83//138 86//138
f 83//139 84//139 87//139
f 85//140 86//140 69//140
f 86//141 87//141 73//141
f 87//142 88//142 77//142
f 117//143 120//143 123//143
f 120//144 121//144 124//144
f 121//145 122//145 125//145
f 123//146 124//146 127//146
f 124//147 125//147 128//147
f 125//148 126//148 129//148
f 127//149 128//149 145//149
f 128//59 129//59 149//59
f 129//58 130//58 153//58
f 118//1 132//1 135//1
f 132//1 133//1 136//1
f 133//1 134//1 137//1
f 135//1 136//1 139//1
f 136//1 137//1 140//1
f 137//1 138//1 141//1
f 139//1 140//1 122//1
f 140//1 141//1 126//1
f 141//1 142//1 130//1
f 119//1 143//1 146//1
f 143//1 144//1 147//1
f 144//1 145//1 148//1
f 146//1 147//1 150//1
f 147//1 148//1 151//1
f 148//1 149//1 152//1
f 150//1 151//1 134//1
f 151//1 152//1 138//1
f 152//1 153//1 142//1
f 2//150 90//150 16//150
f 16//151 95//151 17//151
f 17//152 94//152 18//152
f 18//153 93//153 34//153
f 34//154 92//154 30//154
f 3//155 30//155 89//155
f 40//156 38//156 7//156
f 41//157 40//157 11//157
f 42//158 41//158 29//158
f 43//159 42//159 28//159
f 44//160 43//160 27//160
f 39//161 44//161 3//161
f 98//162 96//162 70//162
f 99//163 98//163 74//163
f 100//164 99//164 57//164
f 101//165 100//165 56//165
f 102//166 101//166 55//166
f 97//167 102//167 52//167
f 54//168 45//168 78//168
f 78//169 47//169 79//169
f 79//170 48//170 80//170
f 80//171 49//171 62//171
f 62//172 50//172 58//172
f 58//173 51//173 52//173
f 4//174 1//174 81//174
f 5//175 4//175 85//175
f 6//176 5//176 69//176
f 23//177 6//177 68//177
f 19//178 23//178 67//178
f 2//179 19//179 53//179
f 110//180 104//180 112//180
f 112//181 109//181 113//181
f 113//182 108//182 114//182
f 114//183 107//183 115//183
f 115//184 106//184 116//184
f 116//3 105//3 111//3
f 109//3 104//3 160//3
f 108//3 109//3 159//3
f 107//3 108//3 158//3
f 106//3 107//3 157//3
f 105//3 106//3 156//3
f 105//3 156//3 103//3
f 155//180 118//180 160//180
f 160//185 135//185 159//185
f 159//182 139//182 158//182
f 158//183 122//183 157//183
f 157//184 121//184 156//184
f 156//3 120//3 154//3
f 143//3 119//3 112//3
f 144//3 143//3 113//3
f 145//3 144//3 114//3
f 127//3 145//3 115//3
f 123//3 127//3 116//3
f 123//3 116//3 117//3
f 118//1 46//1 132//1
f 132//1 51//1 133//1
f 133//1 50//1 134//1
f 134//1 49//1 150//1
f 150//1 48//1 146//1
f 146//1 47//1 119//1
f 110//1 39//1 3//1
f 104//186 110//186 3//186
